PathFileType	4	(X/Y/Z)	..\data\2014030\dynamic\2014030_C4_03.trc
DataRate	CameraRate	NumFrames	NumMarkers	Units	OrigDataRate	OrigDataStartFrame	OrigNumFrames
100.000000	100.000000	4	52	mm	100.000000	21	174
Frame#	Time	L_IAS			L_IPS			R_IPS			R_IAS			L_FTC			L_FLE			L_FME			L_FAX			L_TTC			L_FAL			L_TAM			L_FCC			L_FM1			L_FM2			L_FM5			R_FTC			R_FLE			R_FME			R_FAX			R_TTC			R_FAL			R_TAM			R_FCC			R_FM1			R_FM2			R_FM5			CV7			TV10			SXS			SJN			L_SIA			L_SRS			L_SAA			L_SAE			L_HLE			L_HME			L_UOA			L_RSP			L_UHE			L_HM2			L_HM5			R_SIA			R_SRS			R_SAA			R_SAE			R_HLE			R_HME			R_UOA			R_RSP			R_UHE			R_HM2			R_HM5			
		X1	Y1	Z1	X2	Y2	Z2	X3	Y3	Z3	X4	Y4	Z4	X5	Y5	Z5	X6	Y6	Z6	X7	Y7	Z7	X8	Y8	Z8	X9	Y9	Z9	X10	Y10	Z10	X11	Y11	Z11	X12	Y12	Z12	X13	Y13	Z13	X14	Y14	Z14	X15	Y15	Z15	X16	Y16	Z16	X17	Y17	Z17	X18	Y18	Z18	X19	Y19	Z19	X20	Y20	Z20	X21	Y21	Z21	X22	Y22	Z22	X23	Y23	Z23	X24	Y24	Z24	X25	Y25	Z25	X26	Y26	Z26	X27	Y27	Z27	X28	Y28	Z28	X29	Y29	Z29	X30	Y30	Z30	X31	Y31	Z31	X32	Y32	Z32	X33	Y33	Z33	X34	Y34	Z34	X35	Y35	Z35	X36	Y36	Z36	X37	Y37	Z37	X38	Y38	Z38	X39	Y39	Z39	X40	Y40	Z40	X41	Y41	Z41	X42	Y42	Z42	X43	Y43	Z43	X44	Y44	Z44	X45	Y45	Z45	X46	Y46	Z46	X47	Y47	Z47	X48	Y48	Z48	X49	Y49	Z49	X50	Y50	Z50	X51	Y51	Z51	X52	Y52	Z52	

22	0.21	183.0574645996094	916.3028564453127	-368.0923767089844	-13.88008213043213	968.473327636719	-290.4722900390626	-5.226338386535645	974.1353149414065	-175.280258178711	198.6398315429688	933.7751464843752	-113.8461380004883	108.9543228149414	846.878356933594	-413.5353393554689	86.60348510742189	451.8090820312501	-375.0648803710938	113.4935073852539	444.8833923339845	-257.4191894531251	46.6352882385254	407.7192993164064	-377.8746337890626	99.39368438720706	373.6103515625001	-327.0380249023438	-200.8280334472657	182.7730102539063	-356.2629394531251	-178.4778900146485	182.4441833496094	-269.4586791992188	-258.9206237792969	199.2511291503907	-314.3619689941407	-184.5141296386719	53.30236816406251	-247.8988800048829	-167.4994049072266	40.77344131469727	-301.2766723632813	-200.3394927978516	45.88977432250977	-352.0898132324219	117.3383102416992	854.355651855469	-56.34981536865236	220.8774719238282	470.0174255371095	-125.4656524658203	215.0583496093751	474.7027282714845	-248.8184356689454	218.9376068115235	409.3806762695314	-127.3142242431641	269.6444396972657	413.8912048339845	-187.8576049804688	216.5597229003907	71.56883239746095	-161.2732238769532	231.336410522461	83.75490570068361	-250.9675750732422	167.8964996337891	18.5396842956543	-206.1464538574219	354.4921264648438	19.40697479248047	-235.9059600830079	360.0261535644532	37.02264785766602	-177.4910888671875	313.6711730957032	16.96207427978516	-126.0893249511719	73.05332183837892	1427.131103515625	-228.9216918945313	-1.610855221748352	1198.150146484375	-260.6723632812501	241.3201599121094	1121.349609375	-247.1227111816407	199.5710144042969	1336.985107421875	-242.8678436279297	-3.288876533508302	1234.61328125	-355.3289489746094	33.49025344848634	1365.947021484375	-354.6160888671876	86.86679077148439	1371.093627929688	-419.1600036621095	145.6824188232422	1378.182006835938	-431.2642211914064	118.4946441650391	1066.235229492188	-514.2303466796876	64.91899871826173	1063.589111328125	-461.5751342773439	79.80532836914064	1038.313354492188	-498.5737304687501	215.2971343994141	845.190612792969	-443.5021362304689	185.3709869384766	842.9230957031252	-511.3738403320314	250.6695556640626	765.1411132812501	-439.1268310546876	187.1810607910157	772.041198730469	-519.8956909179689	-9.747969627380373	1218.046630859375	-169.3150482177735	31.48684120178223	1338.001708984375	-137.3956756591797	69.7163772583008	1337.03955078125	-81.09356689453126	123.0183410644532	1339.213256835938	-56.48365402221681	58.0033645629883	1026.1396484375	5.556428909301759	29.0378704071045	1015.121704101563	-69.38150024414064	24.67475509643555	997.4273681640627	-24.29228973388673	130.3987884521485	790.072204589844	-34.42304229736329	79.95037841796876	790.4472656250002	27.44304466247559	162.1236267089844	709.0167236328126	-26.65574645996094	89.20024871826173	718.2778930664064	38.16182327270509	
23	0.22	193.1411437988282	917.1555786132815	-367.2781677246094	-3.557643651962281	969.5276489257815	-289.0837707519532	5.136242389678956	975.5315551757815	-174.0056762695313	208.7645874023438	934.2978515625002	-113.2185897827149	119.4892959594727	847.9488525390627	-412.5306091308595	107.7278671264649	452.8279113769532	-374.9711303710938	133.7959136962891	446.2589111328126	-256.9816589355469	67.80551147460939	409.2881774902345	-378.0219116210938	120.1727371215821	374.9543762207032	-327.0406799316407	-182.7836456298828	188.6271514892578	-357.5553283691407	-160.8943786621094	187.728256225586	-270.6980895996094	-240.8337554931641	205.9585571289063	-315.9004821777344	-168.5088195800782	57.95525360107423	-250.0508728027344	-152.0039672851563	44.90819549560548	-303.4344787597657	-184.5269622802735	51.45523071289064	-353.9520568847657	127.8812408447266	855.8454589843752	-55.40261459350587	225.7223358154297	469.8543701171876	-124.8254699707032	220.5323791503907	474.7080993652345	-248.3450469970704	223.0169067382813	409.2240600585939	-126.7864151000977	273.9718627929688	413.2581176757814	-187.2055969238282	216.8244781494141	71.54236602783205	-161.2987823486328	231.6250305175782	83.73351287841798	-250.9280090332032	168.0103759765625	18.59657669067383	-206.1717681884766	354.4589233398438	18.86982917785645	-235.8913116455079	360.6175231933594	36.6199073791504	-177.2716064453125	313.6713562011719	16.82375717163086	-125.6037750244141	83.47122192382814	1428.355224609375	-228.1821594238282	8.669510841369631	1199.37451171875	-259.6935119628907	251.5120697021485	1122.07177734375	-247.1941070556641	209.8925476074219	1338.151000976563	-242.4002532958985	6.712526798248293	1235.73486328125	-354.1937255859376	43.56370925903321	1367.0927734375	-353.7102661132813	96.71284484863284	1372.16455078125	-418.4278564453126	155.454345703125	1379.161743164063	-430.8184814453126	125.6749649047852	1067.205078125	-512.8614501953126	72.13185119628908	1065.397094726563	-460.2525634765626	86.67571258544923	1039.899780273438	-497.1883239746095	219.1668395996094	844.6380615234377	-442.265350341797	189.3849334716797	843.0471801757815	-510.2247924804689	252.6816711425782	763.6347656250001	-437.8537902832032	189.6742248535157	772.2971801757815	-518.9525146484376	0.6990312933921815	1219.33984375	-168.2638092041016	42.02574157714844	1339.259155273438	-136.4947967529297	80.46847534179689	1338.249633789063	-80.28145599365236	133.7761840820313	1340.430053710938	-55.87662506103517	71.41638946533205	1026.936279296875	7.234296798706056	41.95878219604493	1015.385192871094	-67.51087188720705	38.22908401489259	997.6364746093752	-22.409574508667	147.1179809570313	791.9619750976565	-33.1762924194336	96.77617645263675	791.4683837890627	28.67587089538575	180.3419036865235	711.4678955078126	-25.45042800903321	107.2901458740235	719.4703369140626	39.36054611206055	
24	0.23	203.1017303466797	918.0562744140627	-366.5720520019532	6.644826889038088	970.622497558594	-287.7588195800782	15.36436748504639	976.8721313476565	-172.7962036132813	218.7244567871094	934.7210693359377	-112.5915832519532	129.8360290527344	849.1997070312502	-411.6603088378907	128.9180755615235	454.1969604492189	-374.7101135253907	153.4390258789063	448.2874145507814	-256.2688293457032	89.15891265869142	411.0538330078126	-377.9465942382813	141.0888824462891	376.6297912597657	-326.6421508789063	-163.9165344238282	193.8891143798829	-358.6685485839844	-142.5236511230469	192.5725250244141	-271.7182617187501	-222.1112670898438	211.409652709961	-317.2367553710938	-150.0923156738282	62.12242889404298	-252.3444519042969	-134.0140075683594	49.16517257690431	-305.8047180175782	-166.3411560058594	56.8710403442383	-356.0209350585938	138.0570831298828	857.1826782226565	-54.54674148559572	230.2597656250001	469.6784057617189	-124.2110977172852	225.9358215332032	474.6909179687501	-247.9122314453126	226.8242187500001	409.059051513672	-126.2868270874024	278.0769958496094	412.6231994628907	-186.5426025390625	216.9967956542969	71.50608825683595	-161.3257446289063	231.8288879394532	83.71443176269533	-250.8668975830079	168.0520172119141	18.62815093994141	-206.2166595458985	354.4171447753907	18.41498184204102	-235.8023681640626	361.0719604492188	36.26129913330079	-177.0289154052735	313.5815429687501	16.64153099060059	-125.1698532104492	93.80171966552736	1429.574340820313	-227.5134429931641	18.83298683166504	1200.60009765625	-258.6876831054688	261.5466918945313	1122.69921875	-247.3787689208985	220.1204528808594	1339.282958984375	-242.0237731933594	16.56142234802246	1236.815063476563	-353.0171813964844	53.49441528320314	1368.195556640625	-352.8270874023438	106.4119567871094	1373.150756835938	-417.7413330078126	165.0044097900391	1380.084716796875	-430.473358154297	132.6286010742188	1068.126708984375	-511.5480041503907	79.13684844970705	1067.137573242188	-458.9608154296876	93.36763000488283	1041.428100585938	-495.8247375488282	222.9109191894532	844.1536254882815	-441.0426330566407	193.2997283935547	843.199645996094	-509.0706176757814	254.6426239013672	762.2926635742189	-436.561492919922	192.1622467041016	772.6109619140627	-517.9954223632814	11.03507041931153	1220.665649414063	-167.1931610107422	52.48809051513673	1340.553833007813	-135.6166076660157	91.19370269775392	1339.484497070313	-79.50966644287111	144.4709777832032	1341.680053710938	-55.33606338500978	84.82386779785158	1027.773193359375	8.863522529602053	54.8858985900879	1015.657897949219	-65.70153045654298	51.79684829711915	997.8731079101565	-20.5791072845459	163.9303436279297	793.9724731445315	-31.98169136047364	113.6861343383789	792.583679199219	29.82622146606446	198.6836090087891	714.0637207031251	-24.27368164062501	125.4950103759766	720.7922363281251	40.48452758789063	
25	0.24	212.9826049804688	919.0316162109377	-365.9367675781251	16.77304267883301	971.7334594726565	-286.5252075195313	25.46614456176759	978.156677246094	-171.6764068603516	228.5394744873047	935.1214599609377	-111.9360580444336	140.0649871826172	850.5950317382815	-410.8956604003907	150.0664672851563	455.9218750000001	-374.2897949218751	172.4876403808594	450.9046630859376	-255.3155975341797	110.5980758666992	413.0191955566407	-377.6653442382813	162.0828399658203	378.6188354492188	-325.9100036621094	-144.2664947509766	198.4097442626954	-359.5874328613282	-123.3536376953125	196.8277282714844	-272.5160217285157	-202.7845153808594	215.4937286376954	-318.3383789062501	-129.3910369873047	65.6705780029297	-254.7108764648438	-113.6337432861328	53.35333633422853	-308.3050537109376	-145.8947906494141	61.91968154907228	-358.2134704589844	147.8738555908203	858.3750000000002	-53.7716522216797	234.5394592285157	469.499969482422	-123.6328353881836	231.2070617675782	474.6574096679689	-247.5189819335938	230.4048919677735	408.8946533203126	-125.823715209961	281.9815979003907	411.9988098144532	-185.8955993652344	217.1195373535157	71.46870422363283	-161.3577270507813	231.9764404296876	83.70031738281251	-250.8000640869141	168.0422973632813	18.65461921691895	-206.2727813720704	354.3831176757813	18.01922607421875	-235.6691131591797	361.4162597656251	35.93188095092774	-176.7900390625	313.4399414062501	16.4246997833252	-124.7966613769532	104.0465164184571	1430.78955078125	-226.9057312011719	28.89118385314942	1201.822265625	-257.6572265625001	271.4450988769532	1123.277465820313	-247.6182250976563	230.2578277587891	1340.388305664063	-241.7264099121094	26.27279663085938	1237.86083984375	-351.8063659667969	63.29025268554689	1369.260620117188	-351.9607543945313	115.9785842895508	1374.068115234375	-417.0884704589845	174.3502807617188	1380.96630859375	-430.2090759277345	139.3656005859375	1069.02197265625	-510.2840270996095	85.95085906982423	1068.831665039063	-457.6875610351564	99.89075469970706	1042.915771484375	-494.477264404297	226.5499114990235	843.7490234375002	-439.8477478027345	197.1107482910157	843.388610839844	-507.9173583984376	256.5936279296876	761.1293334960939	-435.2786254882814	194.6523895263672	772.983825683594	-517.0312500000001	21.27377319335938	1222.01513671875	-166.1057281494141	62.87421798706056	1341.883178710938	-134.7563781738282	101.8890914916992	1340.748413085938	-78.77243041992189	155.0970458984375	1342.978393554688	-54.85348129272462	98.21782684326175	1028.661987304688	10.42922115325928	67.83619689941408	1015.959716796875	-63.97618484497072	65.3782196044922	998.1546020507815	-18.82198143005371	180.8084106445313	796.1141357421877	-30.85516357421876	130.6561584472657	793.8103637695315	30.88171005249024	217.0989990234376	716.8062133789064	-23.13911819458008	143.7779083251953	722.2622070312501	41.52665328979493	
